<?xml version="1.0" encoding="utf-8"?>
<!-- Generator: Adobe Illustrator 16.0.0, SVG Export Plug-In . SVG Version: 6.00 Build 0)  -->
<!DOCTYPE svg PUBLIC "-//W3C//DTD SVG 1.1//EN" "http://www.w3.org/Graphics/SVG/1.1/DTD/svg11.dtd">
<svg version="1.1"
	 id="svg2" xmlns:dc="http://purl.org/dc/elements/1.1/" xmlns:cc="http://creativecommons.org/ns#" xmlns:rdf="http://www.w3.org/1999/02/22-rdf-syntax-ns#" xmlns:svg="http://www.w3.org/2000/svg" xmlns:sodipodi="http://sodipodi.sourceforge.net/DTD/sodipodi-0.dtd" xmlns:inkscape="http://www.inkscape.org/namespaces/inkscape" inkscape:version="0.48.1 " sodipodi:docname="University of Tirana logo.svg"
	 xmlns="http://www.w3.org/2000/svg" xmlns:xlink="http://www.w3.org/1999/xlink" x="0px" y="0px" width="374.967px"
	 height="374.965px" viewBox="0 0 374.967 374.965" enable-background="new 0 0 374.967 374.965" xml:space="preserve">
<sodipodi:namedview  id="base" pagecolor="#ffffff" bordercolor="#666666" borderopacity="1.0" inkscape:zoom="1" inkscape:cx="343.11364" inkscape:cy="241.48566" showgrid="false" fit-margin-top="0" fit-margin-left="0" fit-margin-right="0" inkscape:pageopacity="0.0" inkscape:document-units="px" inkscape:pageshadow="2" inkscape:window-x="-8" inkscape:window-y="-8" inkscape:current-layer="layer1" inkscape:window-maximized="1" inkscape:window-width="1366" inkscape:window-height="706" fit-margin-bottom="0">
	</sodipodi:namedview>
<g id="layer1" transform="translate(-137.51688,-394.87931)" inkscape:label="Layer 1" inkscape:groupmode="layer">
	<g id="g3039" transform="matrix(0.7894582,0,0,0.7894582,28.953052,162.08462)">
		<g>
			<path fill="#6C757D" d="M283.152,680.245c-0.35-0.297-1.489-1.075-3.419-2.331l-3.705-2.405l-3.876,5.97l3.513,2.281
				c2.281,1.482,3.765,2.313,4.461,2.494c0.689,0.173,1.351,0.126,1.98-0.136c0.625-0.262,1.168-0.745,1.628-1.45
				c0.516-0.794,0.715-1.568,0.61-2.333C284.239,681.574,283.839,680.881,283.152,680.245z"/>
			<path fill="#6C757D" d="M490.669,664.68c-0.622-0.715-1.31-1.118-2.073-1.227c-0.762-0.11-1.54,0.08-2.338,0.568
				c-0.382,0.256-1.446,1.134-3.183,2.647l-3.335,2.896l4.67,5.372l3.163-2.749c2.052-1.786,3.261-2.982,3.624-3.602
				c0.357-0.614,0.496-1.262,0.418-1.94C491.534,665.973,491.222,665.317,490.669,664.68z"/>
			<polygon fill="#6C757D" points="515.106,650.87 504.637,647.136 510.183,656.737 			"/>
			<path fill="#6C757D" d="M604.512,471.395L497.291,525.78c0.115,2.178,0.181,4.373,0.181,6.582
				c0,67.453-55.017,122.469-122.47,122.469c-67.328,0-122.259-54.81-122.465-122.092l-108.624-55.097
				c-4.177,17.577-6.395,35.899-6.395,54.72c0,130.8,106.683,237.482,237.484,237.482c130.8,0,237.484-106.682,237.484-237.482
				C612.484,511.298,609.705,490.862,604.512,471.395z M523.103,589.199l4.307,1.654l-1.66,4.327l-4.306-1.655L523.103,589.199z
				 M520.149,596.901l4.306,1.653l-1.655,4.308l-4.306-1.654L520.149,596.901z M191.558,596.448
				c-0.905-1.184-1.643-2.854-2.219-5.001c-0.695-2.588-0.923-4.629-0.682-6.131c0.241-1.498,0.735-2.76,1.481-3.794
				c0.745-1.032,1.612-1.811,2.593-2.338c1.457-0.777,3.702-1.567,6.738-2.38l14.464-3.875l1.467,5.474l-14.686,3.936
				c-2.329,0.622-3.827,1.097-4.479,1.414c-1.047,0.533-1.786,1.333-2.222,2.391c-0.439,1.064-0.45,2.359-0.04,3.888
				c0.416,1.555,1.047,2.641,1.895,3.262c0.842,0.619,1.75,0.882,2.716,0.793c0.972-0.083,2.527-0.421,4.672-0.996l15-4.02
				l1.467,5.475l-14.24,3.816c-3.26,0.873-5.596,1.343-7.02,1.409c-1.425,0.062-2.7-0.178-3.842-0.725
				C193.489,598.497,192.463,597.626,191.558,596.448z M205.05,630.674l-2.317-5.2l12.124-17.781l-16.724,7.444l-2.142-4.811
				l25.644-11.419l2.244,5.04l-12.452,18.122l17.124-7.625l2.144,4.812L205.05,630.674z M210.043,638.177l23.806-14.875l3.002,4.805
				l-23.806,14.876L210.043,638.177z M222.16,655.56l15.944-25.188l3.786,4.847l-12.003,18.384l20.606-7.372l3.702,4.738
				l-28.31,9.36L222.16,655.56z M252.115,687.228l-15.356-14.829l19.5-20.193l14.971,14.458l-3.302,3.417l-10.893-10.518
				l-4.322,4.474l10.137,9.791l-3.283,3.399l-10.137-9.79l-5.308,5.496l11.28,10.892L252.115,687.228z M278.358,690.055
				c0.637,1.272,1.061,2.48,1.263,3.634c0.202,1.15,0.277,3.007,0.223,5.574l-0.106,6.463l-5.684-3.691l-0.109-7.358
				c-0.032-2.625-0.12-4.316-0.259-5.085c-0.14-0.768-0.407-1.403-0.794-1.911c-0.391-0.501-1.127-1.106-2.224-1.817l-0.96-0.623
				l-6.382,9.829l-4.758-3.09l15.287-23.545l10.01,6.5c2.517,1.634,4.203,3.032,5.069,4.195c0.866,1.163,1.294,2.51,1.279,4.035
				c-0.02,1.529-0.482,2.984-1.387,4.376c-1.145,1.765-2.616,2.891-4.4,3.367C282.646,691.381,280.617,691.101,278.358,690.055z
				 M307.953,710.508c-0.679,1.456-1.721,2.636-3.123,3.523c-1.405,0.898-2.991,1.311-4.759,1.237
				c-1.771-0.068-3.762-0.621-5.972-1.653c-3.216-1.499-5.343-3.392-6.372-5.683c-1.03-2.291-1.05-4.941-0.056-7.937l5.228,1.838
				c-0.487,1.821-0.453,3.337,0.105,4.557c0.553,1.207,1.607,2.182,3.17,2.912c1.653,0.772,3.067,1.004,4.229,0.688
				c1.166-0.304,1.969-0.928,2.406-1.863c0.281-0.604,0.34-1.195,0.182-1.784c-0.151-0.589-0.596-1.246-1.335-1.962
				c-0.497-0.492-1.702-1.5-3.591-3.032c-2.438-1.967-3.977-3.707-4.619-5.219c-0.914-2.125-0.901-4.198,0.04-6.212
				c0.604-1.298,1.536-2.333,2.797-3.122c1.259-0.783,2.72-1.148,4.377-1.096c1.659,0.059,3.461,0.539,5.417,1.452
				c3.199,1.492,5.271,3.308,6.237,5.46c0.957,2.155,0.934,4.416-0.074,6.794l-5.24-2.17c0.39-1.41,0.356-2.573-0.101-3.478
				c-0.455-0.913-1.406-1.702-2.851-2.375c-1.493-0.695-2.808-0.94-3.935-0.715c-0.729,0.136-1.247,0.534-1.554,1.192
				c-0.282,0.604-0.266,1.237,0.043,1.903c0.393,0.846,1.703,2.15,3.929,3.901c2.223,1.759,3.788,3.229,4.692,4.416
				c0.899,1.191,1.436,2.485,1.606,3.9C308.994,707.393,308.702,708.901,307.953,710.508z M317.365,721.76l-5.357-1.843
				l9.139-26.542l5.359,1.844L317.365,721.76z M350.832,706.329l-8.06-2.009l-5.642,22.627l-5.505-1.373l5.641-22.627l-8.079-2.014
				l1.149-4.612l21.646,5.397L350.832,706.329z M375.041,707.678l-15.086-1.32l-0.543,6.2l14.039,1.227l-0.411,4.708L359,717.265
				l-0.667,7.61l15.621,1.368l-0.413,4.715l-21.265-1.862l2.447-27.965l20.732,1.812L375.041,707.678z M393.519,729.513
				l-5.651,0.497l-2.036-23.233l-8.293,0.725l-0.417-4.733l22.224-1.945l0.413,4.735l-8.274,0.722L393.519,729.513z
				 M408.067,727.161l-5.355-27.554l5.562-1.085l5.356,27.557L408.067,727.161z M432.511,721.309v-0.003l-9.14-26.541l5.357-1.846
				l9.139,26.544L432.511,721.309z M461.438,709.25l-10.95-20.591l-7.353,3.909l-2.229-4.195l19.698-10.472l2.229,4.193
				l-7.335,3.901l10.95,20.591L461.438,709.25z M479.077,699.036l-16.502-22.709l4.586-3.332l16.5,22.711L479.077,699.036z
				 M504.694,678.773l-7.102-1.925c-2.532-0.693-4.182-1.076-4.96-1.154c-0.777-0.078-1.46,0.006-2.056,0.236
				c-0.59,0.236-1.374,0.779-2.361,1.638l-0.862,0.751l7.689,8.845l-4.284,3.723L472.34,669.7l9.008-7.829
				c2.265-1.968,4.072-3.205,5.43-3.716c1.356-0.512,2.767-0.553,4.228-0.116c1.467,0.439,2.736,1.285,3.825,2.538
				c1.38,1.587,2.058,3.31,2.027,5.157c-0.038,1.842-0.867,3.716-2.496,5.6c1.399-0.262,2.678-0.339,3.842-0.214
				c1.164,0.125,2.968,0.564,5.422,1.325l6.18,1.883L504.694,678.773z M526.357,654.738l-6.463-2.223l-7.213,8.596l3.398,5.873
				l-3.863,4.607l-14.477-26.42l3.852-4.592l28.732,9.433L526.357,654.738z M542.146,630.622l-21.495,1.022l16.012,8.874
				l-2.553,4.609l-24.552-13.611l2.674-4.826l21.967-0.96l-16.395-9.088l2.553-4.608l24.553,13.61L542.146,630.622z
				 M549.106,617.161L522.899,607.1l7.457-19.43l4.437,1.702l-5.428,14.139l5.81,2.229l5.049-13.157l4.41,1.693l-5.048,13.157
				l7.133,2.74l5.618-14.64l4.419,1.696L549.106,617.161z M561.575,579.819c-0.799,3.459-2.208,5.933-4.235,7.416
				c-2.026,1.487-4.613,2.053-7.751,1.705l0.711-5.497c1.884,0.101,3.36-0.25,4.436-1.047c1.069-0.793,1.802-2.026,2.192-3.71
				c0.408-1.775,0.344-3.208-0.208-4.28c-0.542-1.076-1.317-1.732-2.323-1.963c-0.651-0.148-1.241-0.087-1.781,0.191
				c-0.546,0.272-1.094,0.842-1.644,1.717c-0.376,0.589-1.112,1.976-2.218,4.141c-1.415,2.793-2.798,4.661-4.145,5.604
				c-1.889,1.336-3.919,1.752-6.084,1.252c-1.394-0.322-2.603-1.017-3.637-2.088c-1.028-1.069-1.688-2.421-1.982-4.052
				c-0.287-1.635-0.193-3.498,0.293-5.601c0.793-3.439,2.14-5.845,4.044-7.234c1.909-1.385,4.128-1.833,6.661-1.341l-1.032,5.576
				c-1.463-0.089-2.593,0.186-3.383,0.823c-0.797,0.635-1.372,1.731-1.731,3.282c-0.37,1.607-0.336,2.943,0.117,3.999
				c0.285,0.684,0.783,1.107,1.492,1.27c0.648,0.15,1.267,0.005,1.852-0.438c0.746-0.559,1.748-2.113,3-4.654
				c1.258-2.541,2.373-4.378,3.344-5.507c0.978-1.128,2.134-1.922,3.481-2.382c1.347-0.454,2.882-0.482,4.608-0.084
				c1.566,0.362,2.938,1.135,4.098,2.323c1.169,1.188,1.905,2.653,2.199,4.399C562.25,575.383,562.123,577.445,561.575,579.819z"/>
		</g>
		<g>
			<path fill="#6C757D" d="M387.676,310.874c0.61,0.167,1.775,0.171,2.663-0.106c0.887-0.277,0.722-1.058-0.053-1.39
				c-0.291-0.124-0.622-0.182-0.965-0.18c-0.573,0.004-1.181,0.171-1.75,0.456C386.794,310.042,387.066,310.707,387.676,310.874z"/>
			<path fill="#6C757D" d="M358.181,309.653c-0.569-0.284-1.179-0.452-1.75-0.456c-0.343-0.003-0.674,0.056-0.966,0.179
				c-0.776,0.333-0.939,1.113-0.052,1.39c0.887,0.278,2.053,0.273,2.662,0.106C358.684,310.707,358.956,310.042,358.181,309.653z"/>
			<path fill="#6C757D" d="M375,294.879c-95.244,0-177.681,56.57-215.474,137.824l102.655,52.069
				c11.494-27.098,32.49-49.255,58.761-62.256v200.181h108.114V422.516c24.395,12.074,44.241,32.041,56.153,56.53l102.538-52.009
				C548.816,348.832,468.013,294.879,375,294.879z M417.225,382.543c-0.777,1.441-2.932,1.498-4.318,0.445
				c-2.104-0.056-6.209-0.106-7.151-0.106c1.388,0.831,3.043,1.825,3.873,2.324c3.272-0.666,5.048,0.607,4.828,2.992
				c0.777,1.22,0.721,2.939-0.223,3.714c-0.221-0.998-0.773-2.272-1.551-2.992c-1.993,0.387-3.444-0.276-4.051-2.494
				c-1.278-0.831-2.932-1.89-3.596-2.334c-0.667-0.443-1.196-0.951-2.716-0.276c-1.497,0.666-2.892,1.22-3.778,1.719
				c-0.5,1.94-2.378,2.055-3.596,1.167c-0.777,0.443-1.445,1.216-1.889,2.048c-0.72-1.275-0.334-2.995,1.05-3.438
				c0.5-1.497,2.28-1.993,3.554-1.273c1.054-0.443,2.548-1.165,3.215-1.442c-2.161-0.776-7.65-2.819-9.592-3.65
				c-1.83,1.386-3.883,2.711-5.378,2.323c-0.223-1.33-0.903-2.43-1.825-4.329c-1.47-3.021-3.3-5.839-4.796-7.586
				c-1.499-1.747-3.022-0.755-2.918,1.654c0.249,5.821,4.544,14.532,10.865,14.865c2.161,0.115,3.027,0.547,1.837,2.154
				c-1.108,1.497-4.551,1.7-6.462,0.287c-1.912-1.414-2.573-1.333-2.186,0.552c0.388,1.885,2.554,2.602,4.16,2.716
				c2.326,0.167,4.983,0.996,2.82,2.992c-2.16,1.995-5.711,0.882-8.318-2.111c-0.903-1.039-1.613-1.326-1.549,0.34
				c0.11,2.882,1.833,4.705,3.607,5.093c1.774,0.388,3.543,0.86,3.043,1.888c-0.829,1.719-3.605,1.998-5.156,1.167
				c-1.554-0.833-3.21-2.389-3.543-3.331c-0.332-0.943-1.019-0.401-0.837,0.891c0.387,2.771,2.334,2.713,2.334,4.986
				c0,2.273-1.888,4.497-4.107,6.992c-2.215-2.494-4.106-4.719-4.106-6.992c0-2.273,1.947-2.215,2.334-4.986
				c0.182-1.293-0.495-1.834-0.828-0.891c-0.334,0.942-2.001,2.499-3.554,3.331c-1.552,0.831-4.325,0.552-5.157-1.167
				c-0.497-1.029,1.283-1.5,3.055-1.888c1.775-0.388,3.487-2.211,3.597-5.093c0.064-1.666-0.644-1.379-1.549-0.34
				c-2.606,2.993-6.157,4.106-8.319,2.111c-2.162-1.995,0.505-2.825,2.833-2.992c1.606-0.114,3.762-0.831,4.15-2.716
				c0.388-1.885-0.273-1.966-2.186-0.552c-1.912,1.413-5.353,1.21-6.461-0.287c-1.19-1.607-0.325-2.039,1.836-2.154
				c6.32-0.332,10.615-9.044,10.865-14.865c0.103-2.409-1.41-3.401-2.908-1.654c-1.496,1.747-3.326,4.565-4.795,7.586
				c-0.923,1.899-1.614,2.998-1.836,4.329c-1.497,0.388-3.55-0.937-5.38-2.323c-1.94,0.831-7.429,2.874-9.59,3.65
				c0.664,0.277,2.172,1,3.225,1.442c1.275-0.72,3.044-0.224,3.544,1.273c1.385,0.443,1.77,2.162,1.05,3.438
				c-0.443-0.833-1.102-1.604-1.878-2.048c-1.22,0.888-3.109,0.773-3.607-1.167c-0.887-0.499-2.27-1.053-3.767-1.719
				c-1.522-0.675-2.051-0.167-2.716,0.276c-0.664,0.444-2.334,1.503-3.607,2.334c-0.61,2.218-2.047,2.881-4.043,2.494
				c-0.777,0.72-1.34,1.994-1.56,2.992c-0.943-0.775-0.998-2.494-0.223-3.714c-0.221-2.384,1.556-3.657,4.828-2.992
				c0.83-0.499,2.498-1.492,3.883-2.324c-0.943,0-5.044,0.049-7.151,0.106c-1.387,1.053-3.553,0.996-4.329-0.445
				c-0.943-0.499-2.271,0.004-3.714,0.169c0.5-1.663,1.993-2.548,3.905-2.133c1.164-1.081,2.665-1.081,4.244,0.499
				c1.663,0.165,3.991,0.331,7.151,0.414c-0.998-0.665-2.412-1.666-4.075-2.663c-1.497,0.499-3.078-0.077-3.575-1.241
				c-1.081-0.998-2.323-0.759-3.82-0.509c0.166-2.411,1.995-2.653,4.572-1.655c1.498-0.831,3.816-0.003,4.149,1.909
				c0.997,1.414,2.996,2.248,5.241,3.746c2.828-1.165,6.405-2.328,9.814-4.074c-0.748-0.749-1.492-1.663-2.323-2.494
				c5.543-2.771,9.754-5.662,11.639-11.649c0.626-1.992-0.499-1.551-0.998-0.276c-0.912,2.334-2.382,3.88-4.711,4.934
				c-1.651,0.748-2.61-1.109-1.389-2.217c1.218-1.109,2.331-2.989,2.386-5.263c0.038-1.611-1.799-1.398-2.11-0.552
				c-2.662,7.207-5.928,12.138-8.701,10.918c-2.771-1.22-1.463-2.827,0-3.544c2.828-1.386,4.44-5.605,4.605-7.766
				c0.167-2.163-1.171-2.108-2.058-0.446c-0.887,1.664-3.329,4.827-7.321,9.261c-3.992,4.435-9.535,5.43-12.584,2.77
				c-2.689-2.347-0.095-3.825,2.557-3.162c5.101,1.275,10.369-3.988,13.528-12.138c0.487-1.259-0.444-1.455-0.997-0.775
				c-7.097,8.703-13.032,9.474-16.414,6.536c-1.185-1.029-2.549-4.321,2.939-3.268c5.929,1.137,9.477-3.324,13.634-9.422
				c1.847-2.71,0.167-2.775-1.497-1.167c-1.664,1.608-4.155,3.493-6.928,5.156c-2.771,1.664-8.372,1.437-9.092-1.889
				c-0.721-3.326,1.771-3.21,4.488-2.323c4.719,1.541,8.204-1.721,11.586-5.602c1.508-1.731,0.896-2.775-0.435-2.164
				c-1.33,0.61-4.494,2.106-6.546,3.215c-2.051,1.109-6.538,1.89-8.7-1.103c-2.162-2.994,1.22-4.774,3.936-2.833
				c2.716,1.942,9.363,0.171,11.968-3.268c2.605-3.437-0.333-2.773-1.941-1.941c-4.073,2.107-9.138,2.332-13.519-0.828
				c-1.987-1.434-1.679-2.492-0.996-3.66c0.388-0.666,1.708-0.83,3.428,0.223c5.828,3.573,10.48,2.828,13.973-1.995
				c1.392-1.92-0.334-2.05-1.942-1.273c-6.787,3.277-13.747,1.218-15.798-3.66c-0.962-2.288,1.22-4.878,3.438-1.995
				c2.872,3.735,7.489,3.828,12.201,3.162c2.264-0.319,2.28-3.193-0.116-3.501c-5.156-0.665-13.305-4.046-15.745-8.201
				c-2.026-3.453,2.05-7.486,4.212-3.384c2.161,4.103,6.713,6.766,11.702,8.318c1.759,0.547,2.384,0.501,2.441-0.053
				c0.079-0.79,0.665-2.159,1.22-1.772c1.385,0.777,6.367,2.487,8.806,3.374c2.439,0.886,3.549,3.106,3.438,5.156
				c-0.11,2.052-0.663,5.656,2.939,5.656c5.766,0,3.357-9.31-0.053-12.128c-2.632-2.175-5.489-3.227-7.65-3.172
				c-2.162,0.055-4.736-0.833-4.986-2.79c-0.526-0.112-1.53-0.361-2.557-0.361c-0.776,0-2.239-0.795-2.96-1.432
				c-0.721-0.637-1.58-1.671-0.86-2.281c0.721-0.61,1.859,0.414,2.301,1.273c0.444,0.859,1.393,1.473,1.878,1.528
				c0.719,0.081,1.956,0.28,2.621,0.446c0.664,0.165,1.749,0.003,2.026-0.329c0.542-0.651-0.051-1.042-0.785-1.305
				c-0.842-0.302-1.742-0.213-2.005,0.329c-0.184,0.378-0.507,0.719-1.103,0.774c-0.664-3.714,2.937-3.542,5.931-3.375
				c0.664-1.061,1.724-1.458,2.96-1.453c2.058,0.009,4.603,1.123,6.578,2.058c1.497,0.334,4.04,0.162,5.315-0.393
				c1.273-0.555,1.217,0.111,0.774,0.721c-0.444,0.61-2.051,1.723-2.716,1.889c-0.664,0.167-0.434,0.497-0.212,0.774
				c0.7,0.877,2.271,1.725,2.991,1.836c0.721,0.111,0.94,0.434,0.552,0.711c-0.387,0.278-0.941,0.618-1.496,0.785
				c-0.554,0.166-0.502,0.385-0.169,0.828c0.685,0.915,2.499,1.831,3.109,1.719c0.61-0.111,0.667,0.221,0.445,0.499
				c-0.221,0.277-1.051,0.668-1.496,0.668c-0.443,0-0.489,0.081-0.118,0.552c0.402,0.51,1.311,1.611,2.112,1.379
				c1.081-0.312,1.351-0.043,1.019,0.414c-0.783,1.077-0.746,1.555,0.805,1.814c1.554-0.259,1.601-0.737,0.818-1.814
				c-0.333-0.458-0.063-0.727,1.018-0.414c0.8,0.231,1.699-0.868,2.1-1.379c0.372-0.471,0.339-0.552-0.104-0.552
				c-0.445,0-1.275-0.391-1.498-0.668c-0.22-0.278-0.174-0.609,0.435-0.499c0.609,0.111,2.422-0.804,3.109-1.719
				c0.334-0.443,0.386-0.662-0.168-0.828c-0.555-0.167-1.108-0.507-1.497-0.785c-0.388-0.277-0.168-0.599,0.552-0.711
				c0.72-0.111,2.301-0.959,3.002-1.836c0.22-0.277,0.442-0.607-0.223-0.774c-0.664-0.166-2.272-1.279-2.715-1.889
				c-0.444-0.61-0.502-1.276,0.773-0.721s3.819,0.727,5.315,0.393c3.159-1.497,7.765-3.433,9.539-0.605
				c2.995-0.167,6.597-0.34,5.93,3.375c-0.595-0.056-0.918-0.396-1.103-0.774c-0.263-0.542-1.152-0.631-1.993-0.329
				c-0.736,0.263-1.338,0.654-0.797,1.305c0.277,0.332,1.359,0.494,2.026,0.329c0.667-0.166,1.905-0.364,2.62-0.446
				c0.487-0.055,1.435-0.67,1.88-1.528c0.443-0.86,1.578-1.883,2.301-1.273c0.72,0.61-0.14,1.644-0.86,2.282
				c-0.721,0.637-2.185,1.432-2.96,1.432c-1.027,0-2.031,0.249-2.557,0.361c-0.25,1.957-2.824,2.844-4.986,2.79
				c-2.162-0.055-5.017,0.998-7.65,3.172c-3.412,2.817-5.818,12.127-0.052,12.127c3.602,0,3.048-3.603,2.938-5.655
				c-0.11-2.051,0.998-4.27,3.438-5.156c2.439-0.887,7.422-2.597,8.807-3.374c0.553-0.387,1.138,0.982,1.22,1.772
				c0.053,0.554,0.68,0.601,2.441,0.053c4.99-1.552,9.54-4.215,11.702-8.318c2.164-4.102,6.238-0.068,4.212,3.384
				c-2.439,4.156-10.59,7.536-15.745,8.201c-2.397,0.309-2.38,3.182-0.119,3.501c4.713,0.666,9.328,0.573,12.202-3.162
				c2.217-2.883,4.401-0.293,3.439,1.995c-2.053,4.879-9.01,6.937-15.799,3.66c-1.608-0.776-3.334-0.648-1.942,1.273
				c3.493,4.823,8.147,5.567,13.973,1.995c1.718-1.053,3.05-0.889,3.439-0.223c0.683,1.168,0.99,2.227-0.997,3.66
				c-4.379,3.159-9.453,2.935-13.528,0.828c-1.608-0.831-4.547-1.496-1.942,1.941c2.605,3.438,9.25,5.208,11.967,3.268
				c2.716-1.941,6.098-0.161,3.939,2.833c-2.162,2.993-6.65,2.212-8.701,1.103c-2.051-1.109-5.205-2.605-6.536-3.215
				c-1.329-0.61-1.953,0.434-0.445,2.164c3.382,3.882,6.868,7.144,11.587,5.602c2.715-0.887,5.208-1.003,4.488,2.323
				c-0.721,3.326-6.321,3.553-9.093,1.889c-2.771-1.663-5.265-3.548-6.927-5.156c-1.665-1.607-3.345-1.543-1.497,1.167
				c4.159,6.098,7.704,10.559,13.634,9.422c5.49-1.054,4.124,2.238,2.939,3.268c-3.382,2.938-9.307,2.167-16.404-6.536
				c-0.553-0.68-1.496-0.484-1.007,0.776c3.158,8.149,8.425,13.412,13.527,12.138c2.653-0.664,5.247,0.815,2.557,3.162
				c-3.049,2.661-8.591,1.666-12.583-2.77c-3.992-4.435-6.434-7.598-7.322-9.262c-0.886-1.663-2.212-1.717-2.046,0.446
				c0.166,2.161,1.766,6.38,4.593,7.766c1.465,0.717,2.772,2.324,0,3.544c-2.772,1.219-6.038-3.711-8.7-10.918
				c-0.312-0.847-2.15-1.059-2.113,0.552c0.057,2.274,1.168,4.154,2.387,5.263c1.22,1.108,0.262,2.965-1.389,2.217
				c-2.328-1.053-3.798-2.6-4.712-4.934c-0.5-1.275-1.624-1.715-0.997,0.276c1.885,5.987,6.107,8.879,11.65,11.649
				c-0.831,0.831-1.587,1.745-2.334,2.494c3.409,1.746,6.985,2.909,9.813,4.074c2.244-1.497,4.245-2.331,5.242-3.746
				c0.334-1.912,2.662-2.741,4.159-1.909c2.577-0.998,4.406-0.756,4.572,1.654c-1.497-0.25-2.747-0.489-3.83,0.509
				c-0.497,1.165-2.078,1.74-3.575,1.241c-1.665,0.998-3.076,1.998-4.076,2.663c3.159-0.083,5.489-0.249,7.151-0.414
				c1.581-1.58,3.079-1.579,4.244-0.499c1.911-0.416,3.407,0.47,3.904,2.133C419.498,382.547,418.167,382.044,417.225,382.543z"/>
		</g>
	</g>
</g>
</svg>
